<svg width="93" height="93" viewBox="0 0 93 93" fill="none" xmlns="http://www.w3.org/2000/svg">
<rect width="93" height="93" rx="16" fill="url(#paint0_linear_202_2)"/>
<path d="M68.1299 76.9609L76.6996 15.9624C75.1037 20.2529 70.7702 22.8211 66.3874 22.2053L11.8462 14.5428C16.9998 21.4536 24.493 25.8506 32.9339 27.0364L63.4511 31.3238C64.2627 31.4378 64.9822 32.2078 64.844 33.1916C64.7288 34.0115 63.9643 34.7401 62.9903 34.6033L22.409 28.902C27.5627 35.8128 35.0559 40.2098 43.4968 41.3957L61.6772 43.9499C62.4889 44.0639 63.2083 44.8338 63.0701 45.8176C62.9549 46.6375 62.1904 47.3662 61.2165 47.2293L32.9719 43.2612L39.9363 52.6002C40.2149 52.9738 40.5165 53.1833 40.8181 53.3929L40.9805 53.4157C41.4214 53.8121 41.9083 53.8805 42.5346 54.1357C52.9706 56.4379 60.1675 66.4784 58.624 77.4647L57.5413 85.1715L68.1299 76.9609Z" fill="white"/>
<defs>
<linearGradient id="paint0_linear_202_2" x1="2.49999" y1="93" x2="93" y2="2.50001" gradientUnits="userSpaceOnUse">
<stop stop-color="#667EEA"/>
<stop offset="1" stop-color="#764BA2"/>
</linearGradient>
</defs>
</svg>
